<svg width="1200" height="720" viewBox="0 0 1200 720" fill="none" xmlns="http://www.w3.org/2000/svg">
  <defs>
    <linearGradient id="sky3" x1="600" y1="0" x2="600" y2="380" gradientUnits="userSpaceOnUse">
      <stop stop-color="#183B7A"/>
      <stop offset="1" stop-color="#6B8ED7"/>
    </linearGradient>
    <linearGradient id="ground3" x1="600" y1="360" x2="600" y2="720" gradientUnits="userSpaceOnUse">
      <stop stop-color="#2EA44F"/>
      <stop offset="1" stop-color="#165A2A"/>
    </linearGradient>
  </defs>
  <rect width="1200" height="720" fill="url(#sky3)"/>
  <rect y="360" width="1200" height="360" fill="url(#ground3)"/>
  <circle cx="924" cy="146" r="54" fill="#FFF2B3"/>
  <path d="M0 664C158 580 313 536 517 546C773 560 1019 633 1200 720H0V664Z" fill="#1A6A31"/>
  <path d="M263 489H937V653H263V489Z" fill="#F8E3B7" stroke="#D9B96B" stroke-width="8"/>
  <path d="M222 488L600 292L978 488H222Z" fill="#8B5E34" stroke="#6E4628" stroke-width="8"/>
  <path d="M530 503H670V653H530V503Z" fill="#7C4A2D"/>
  <rect x="332" y="546" width="110" height="74" rx="10" fill="#FFF5D6"/>
  <rect x="758" y="546" width="110" height="74" rx="10" fill="#FFF5D6"/>
  <rect x="332" y="521" width="110" height="18" rx="9" fill="#7FB9FF" fill-opacity="0.85"/>
  <rect x="758" y="521" width="110" height="18" rx="9" fill="#7FB9FF" fill-opacity="0.85"/>
  <path d="M680 456H730V653H680V456Z" fill="#EED28E"/>
  <path d="M470 456H520V653H470V456Z" fill="#EED28E"/>
  <ellipse cx="970" cy="600" rx="88" ry="56" fill="#D7FFD0"/>
  <path d="M963 564L968 472" stroke="#56412F" stroke-width="6" stroke-linecap="round"/>
  <path d="M968 480L1044 503L968 535V480Z" fill="#22C55E"/>
  <circle cx="208" cy="596" r="18" fill="white"/>
  <circle cx="208" cy="596" r="6" fill="#CBD5E1"/>
  <path d="M168 610C183 600 196 594 219 595" stroke="#FFFFFF" stroke-opacity="0.28" stroke-width="8" stroke-linecap="round"/>
</svg>
