<svg width="1200" height="720" viewBox="0 0 1200 720" fill="none" xmlns="http://www.w3.org/2000/svg">
  <defs>
    <linearGradient id="sky" x1="600" y1="0" x2="600" y2="360" gradientUnits="userSpaceOnUse">
      <stop stop-color="#9ED6FF"/>
      <stop offset="1" stop-color="#D9F2FF"/>
    </linearGradient>
    <linearGradient id="grass" x1="600" y1="320" x2="600" y2="720" gradientUnits="userSpaceOnUse">
      <stop stop-color="#70D66A"/>
      <stop offset="1" stop-color="#238B45"/>
    </linearGradient>
    <radialGradient id="sunGlow" cx="0" cy="0" r="1" gradientUnits="userSpaceOnUse" gradientTransform="translate(910 170) rotate(90) scale(120)">
      <stop stop-color="#FFF7B0" stop-opacity="0.9"/>
      <stop offset="1" stop-color="#FFF7B0" stop-opacity="0"/>
    </radialGradient>
  </defs>
  <rect width="1200" height="720" fill="url(#sky)"/>
  <circle cx="910" cy="170" r="120" fill="url(#sunGlow)"/>
  <circle cx="910" cy="170" r="58" fill="#FFE071"/>
  <path d="M0 320H1200V720H0V320Z" fill="url(#grass)"/>
  <path d="M36 731C162 552 376 451 592 441C769 432 924 477 1200 615V731H36Z" fill="#1F7A3A"/>
  <path d="M238 733C327 543 466 435 644 419C846 400 1026 480 1200 640V733H238Z" fill="#2FA34A"/>
  <path d="M398 731C474 578 573 507 676 483C782 458 909 492 1082 614V731H398Z" fill="#7ADB73"/>
  <path d="M534 730C593 626 662 572 755 550C862 525 960 575 1107 670V730H534Z" fill="#BDF39D"/>
  <ellipse cx="806" cy="610" rx="76" ry="49" fill="#E5FFD6"/>
  <path d="M803 585L806 488" stroke="#433" stroke-width="6" stroke-linecap="round"/>
  <path d="M806 496L885 520L806 551V496Z" fill="#EF4444"/>
  <circle cx="235" cy="548" r="16" fill="white"/>
  <circle cx="235" cy="548" r="6" fill="#D1D5DB"/>
  <path d="M188 561C207 548 225 542 251 545" stroke="#FFFFFF" stroke-opacity="0.25" stroke-width="8" stroke-linecap="round"/>
</svg>
