<svg width="1200" height="720" viewBox="0 0 1200 720" fill="none" xmlns="http://www.w3.org/2000/svg">
  <defs>
    <linearGradient id="sky2" x1="600" y1="0" x2="600" y2="390" gradientUnits="userSpaceOnUse">
      <stop stop-color="#86C9FF"/>
      <stop offset="1" stop-color="#ECF9FF"/>
    </linearGradient>
    <linearGradient id="field2" x1="600" y1="300" x2="600" y2="720" gradientUnits="userSpaceOnUse">
      <stop stop-color="#92E46F"/>
      <stop offset="1" stop-color="#1C7A36"/>
    </linearGradient>
  </defs>
  <rect width="1200" height="720" fill="url(#sky2)"/>
  <rect y="320" width="1200" height="400" fill="url(#field2)"/>
  <ellipse cx="972" cy="556" rx="112" ry="62" fill="#D9FFD0"/>
  <path d="M961 512L966 415" stroke="#5B4636" stroke-width="6" stroke-linecap="round"/>
  <path d="M966 426L1047 448L966 480V426Z" fill="#F97316"/>
  <path d="M86 662C235 575 433 542 652 562C830 578 992 624 1200 720H0L86 662Z" fill="#17602E"/>
  <circle cx="352" cy="582" r="71" fill="#1F2937"/>
  <circle cx="352" cy="582" r="36" fill="#6B7280"/>
  <circle cx="742" cy="582" r="71" fill="#1F2937"/>
  <circle cx="742" cy="582" r="36" fill="#6B7280"/>
  <rect x="276" y="330" width="530" height="162" rx="26" fill="#F8FAFC" stroke="#CBD5E1" stroke-width="8"/>
  <rect x="305" y="368" width="210" height="88" rx="20" fill="#86EFAC"/>
  <rect x="549" y="368" width="216" height="88" rx="20" fill="#BBF7D0"/>
  <path d="M255 321H825L764 227H320L255 321Z" fill="#166534"/>
  <path d="M343 223V121" stroke="#475569" stroke-width="10" stroke-linecap="round"/>
  <path d="M741 223V121" stroke="#475569" stroke-width="10" stroke-linecap="round"/>
  <path d="M303 118H786" stroke="#334155" stroke-width="12" stroke-linecap="round"/>
  <rect x="488" y="505" width="96" height="28" rx="14" fill="#0F172A" fill-opacity="0.24"/>
  <circle cx="995" cy="230" r="48" fill="#FFF1A8"/>
  <circle cx="203" cy="206" r="14" fill="white"/>
  <circle cx="242" cy="176" r="20" fill="white"/>
  <circle cx="280" cy="206" r="16" fill="white"/>
</svg>
