<svg xmlns="http://www.w3.org/2000/svg" width="96" height="96" viewBox="0 0 96 96" fill="none">
  <rect width="96" height="96" rx="24" fill="#ECFDF5"/>
  <path d="M48 18c6 9 10 14 10 22 0 7-4 12-10 16-6-4-10-9-10-16 0-8 4-13 10-22z" fill="#22C55E"/>
  <path d="M48 26c3 5 5 8 5 13 0 4-2 8-5 11-3-3-5-7-5-11 0-5 2-8 5-13z" fill="#DCFCE7"/>
  <path d="M24 64c7-12 18-18 24-20 6 2 17 8 24 20" stroke="#15803D" stroke-width="5" stroke-linecap="round"/>
  <text x="48" y="78" text-anchor="middle" font-family="Arial, sans-serif" font-size="24" font-weight="700" fill="#166534">420</text>
</svg>
